# This file uses centimeters as units for non-parametric coordinates.

mtllib Inside_Corner_LP.mtl
g default
v -3.000000 0.000000 -1.000000
v -3.000000 0.000000 -0.500000
v -3.000000 0.000000 -0.000000
v -3.000000 1.004783 -1.000000
v -3.000000 1.000000 -0.500000
v -3.000000 0.614728 -0.000000
v -0.002254 0.613207 -0.000000
v -0.002254 0.000000 -0.000000
v -1.002254 1.002398 -0.997746
v -0.502254 1.000000 -0.497746
v -1.002254 0.000000 -0.997746
v -0.502254 0.000000 -0.497746
v -1.000000 1.000000 -3.000000
v -0.500000 1.000000 -3.000000
v -0.000000 0.609945 -3.000000
v -1.000000 0.000000 -3.000000
v -0.500000 0.000000 -3.000000
v 0.000000 0.000000 -3.000000
vt 0.947660 0.469737
vt 0.447601 0.472528
vt 0.716178 0.471211
vt 0.793097 0.470804
vt 0.524515 0.472168
vt 0.619079 0.471725
vt 0.616185 0.010586
vt 0.522357 0.011026
vt 0.289645 0.148803
vt 0.291679 0.271639
vt 0.089822 0.152112
vt 0.093147 0.352890
vt 0.193042 0.350280
vt 0.189734 0.150457
vt 0.370686 0.472888
vt 0.791468 0.163838
vt 0.714144 0.087331
vt 0.945542 0.162775
vt 0.369248 0.165922
vt 0.445803 0.088647
vt 0.267642 0.787085
vt 0.167717 0.787436
vt 0.167015 0.587587
vt 0.266940 0.587236
vt 0.067519 0.709835
vt 0.067091 0.587938
vt 0.371016 0.512730
vt 0.447931 0.513201
vt 0.445572 0.898466
vt 0.369128 0.821081
vt 0.524845 0.513672
vt 0.521673 0.975155
vt 0.618672 0.514246
vt 0.617020 0.975739
vt 0.946967 0.515807
vt 0.945763 0.824161
vt 0.791442 0.823559
vt 0.793137 0.515207
vt 0.714101 0.900050
vt 0.716222 0.514783
vn -1.000000 0.000000 0.000000
vn -1.000000 0.000000 0.000000
vn -1.000000 0.000000 0.000000
vn -1.000000 0.000000 0.000000
vn -1.000000 0.000000 0.000000
vn -1.000000 0.000000 0.000000
vn 0.000523 0.999976 0.006919
vn 0.000196 0.919273 0.393621
vn 0.000073 0.856393 0.516325
vn 0.000523 0.999976 0.006919
vn -0.000032 0.790863 0.611993
vn -0.000032 0.790863 0.611993
vn 0.000000 0.000000 1.000000
vn 0.000000 0.000000 1.000000
vn 0.000000 0.000000 1.000000
vn 0.000000 0.000000 1.000000
vn 0.000000 -1.000000 0.000000
vn 0.000000 -1.000000 0.000000
vn 0.000000 -1.000000 0.000000
vn 0.000000 -1.000000 0.000000
vn 0.000000 -1.000000 0.000000
vn 0.000000 -1.000000 0.000000
vn 0.001128 -0.000000 -0.999999
vn 0.001128 -0.000000 -0.999999
vn 0.001128 -0.000000 -0.999999
vn 0.001128 -0.000000 -0.999999
vn 0.000000 0.000000 -1.000000
vn 0.000000 0.000000 -1.000000
vn 0.000000 0.000000 -1.000000
vn 0.000000 0.000000 -1.000000
vn 0.000000 0.000000 -1.000000
vn 0.000000 0.000000 -1.000000
vn 0.000000 -1.000000 0.000000
vn 0.000000 -1.000000 0.000000
vn 0.000000 -1.000000 0.000000
vn 0.000000 -1.000000 0.000000
vn 0.000000 -1.000000 0.000000
vn 0.000000 -1.000000 0.000000
vn 1.000000 0.000000 0.000751
vn 1.000000 0.000000 0.000751
vn 1.000000 0.000000 0.000751
vn 1.000000 0.000000 0.000751
vn -0.999999 -0.000000 -0.001126
vn -0.999999 -0.000000 -0.001126
vn -0.999999 -0.000000 -0.001126
vn -0.999999 -0.000000 -0.001126
vn 0.002663 0.999996 -0.000530
vn 0.516902 0.856045 -0.000072
vn 0.393878 0.919163 -0.000197
vn 0.002663 0.999996 -0.000530
vn 0.613472 0.789716 0.000035
vn 0.613472 0.789716 0.000035
s 1
g Inside_Corner_LP
usemtl initialShadingGroup
f 1/11/1 2/14/2 5/13/3 4/12/4
f 2/14/2 3/9/5 6/10/6 5/13/3
s 2
f 4/4/7 5/3/8 10/17/9 9/16/10
f 5/3/8 6/6/11 7/7/12 10/17/9
s off
f 3/5/13 8/8/14 7/7/15 6/6/16
s 3
f 11/19/17 12/20/18 2/2/19 1/15/20
f 12/20/18 8/8/21 3/5/22 2/2/19
s off
f 9/16/23 11/18/24 1/1/25 4/4/26
s 4
f 13/21/27 14/22/28 17/23/29 16/24/30
f 14/22/28 15/25/31 18/26/32 17/23/29
s 5
f 16/27/33 17/28/34 12/29/35 11/30/36
f 17/28/34 18/31/37 8/32/38 12/29/35
s off
f 8/32/39 18/31/40 15/33/41 7/34/42
f 16/35/43 11/36/44 9/37/45 13/38/46
s 6
f 9/37/47 10/39/48 14/40/49 13/38/50
f 10/39/48 7/34/51 15/33/52 14/40/49
