# This file uses centimeters as units for non-parametric coordinates.

mtllib Outside_Bend_LP.mtl
g default
v -1.000000 -0.000000 0.000000
v -0.500000 -0.000000 0.000000
v 0.000000 -0.000000 0.000000
v -1.000000 1.004783 0.000000
v -0.500000 1.000000 0.000000
v 0.000000 0.614728 0.000000
v 0.180854 1.002391 -2.968874
v 0.504357 1.000000 -2.584435
v 0.829797 0.612337 -2.201987
v 0.178395 -0.000000 -2.966346
v 0.501434 -0.000000 -2.581431
v 0.829797 -0.000000 -2.201987
v 3.000000 1.000000 -4.000000
v 3.000000 1.000000 -3.479599
v 3.000000 0.609945 -3.000000
v 3.000000 -0.000000 -4.000000
v 3.000000 -0.000000 -3.479599
v 3.000000 -0.000000 -3.000000
v 1.428793 1.001196 -3.747219
v 1.428793 -0.000000 -3.747219
v 1.602029 -0.000000 -3.266671
v 1.777020 -0.000000 -2.787927
v 1.777020 0.611141 -2.787927
v 1.603332 1.000000 -3.268010
v -0.674853 1.003587 -1.650118
v -0.675295 -0.000000 -1.649664
v -0.225981 -0.000000 -1.445346
v 0.218258 -0.000000 -1.235811
v 0.218258 0.613532 -1.235811
v -0.225056 1.000000 -1.446296
v 2.172014 -0.000000 -3.923683
v 2.172014 1.000598 -3.923683
v 2.263927 1.000000 -3.427502
v 2.356476 0.610543 -2.931974
v 2.356476 -0.000000 -2.931974
v 2.263927 -0.000000 -3.427502
v 0.763099 1.001794 -3.431642
v 0.763099 -0.000000 -3.431642
v 1.009107 -0.000000 -2.983249
v 1.264969 -0.000000 -2.544981
v 1.264969 0.611739 -2.544981
v 1.013055 1.000000 -2.987306
v -0.304940 -0.000000 -2.367063
v -0.303554 1.002989 -2.368487
v 0.088760 1.000000 -2.066630
v 0.478607 0.612935 -1.762238
v 0.478607 -0.000000 -1.762238
v 0.086882 -0.000000 -2.064699
v -0.916947 1.004185 -0.843253
v -0.916947 -0.000000 -0.843253
v -0.427075 -0.000000 -0.745172
v 0.056207 -0.000000 -0.640319
v 0.056207 0.614130 -0.640319
v -0.426938 1.000000 -0.745313
v -0.979187 1.004484 -0.423666
v -0.979187 -0.000000 -0.423666
v -0.481594 -0.000000 -0.374658
v 0.014426 -0.000000 -0.324033
v 0.014426 0.614429 -0.324033
v -0.481594 1.000000 -0.374658
v -0.813880 -0.000000 -1.254718
v -0.813880 1.003886 -1.254718
v -0.340660 1.000000 -1.104180
v 0.124462 0.613831 -0.945319
v 0.124462 -0.000000 -0.945319
v -0.341168 -0.000000 -1.103658
v -0.504147 1.003288 -2.022621
v -0.505039 -0.000000 -2.021704
v -0.082861 -0.000000 -1.766702
v 0.336625 -0.000000 -1.508932
v 0.336625 0.613234 -1.508932
v -0.081476 1.000000 -1.768125
v -0.076638 -0.000000 -2.682708
v -0.074543 1.002690 -2.684860
v 0.284414 1.000000 -2.339350
v 0.643287 0.612636 -1.993754
v 0.643287 -0.000000 -1.993754
v 0.282019 -0.000000 -2.336888
v 0.461867 1.002092 -3.219527
v 0.458861 -0.000000 -3.216438
v 0.744115 -0.000000 -2.797103
v 1.037303 -0.000000 -2.385922
v 1.037303 0.612038 -2.385922
v 0.747561 1.000000 -2.800644
v 1.085092 -0.000000 -3.606715
v 1.085092 1.001495 -3.606715
v 1.299852 1.000000 -3.144235
v 1.511890 0.611440 -2.678957
v 1.511890 -0.000000 -2.678957
v 1.295442 -0.000000 -3.139702
v 1.791340 1.000897 -3.852263
v 1.791340 -0.000000 -3.852263
v 1.924618 -0.000000 -3.361599
v 2.059081 -0.000000 -2.872152
v 2.059081 0.610842 -2.872152
v 1.924618 1.000000 -3.361599
v 2.571950 -0.000000 -3.965726
v 2.571950 1.000299 -3.965726
v 2.619495 1.000000 -3.466630
v 2.667215 0.610244 -2.967713
v 2.667215 -0.000000 -2.967713
v 2.619495 -0.000000 -3.466630
vt 0.945798 0.466962
vt 0.445735 0.469117
vt 0.714315 0.468141
vt 0.791233 0.467832
vt 0.522650 0.468855
vt 0.617214 0.468532
vt 0.614905 0.007043
vt 0.444162 0.007625
vt 0.367246 0.007888
vt 0.521077 0.007363
vt 0.297527 0.073323
vt 0.299561 0.196160
vt 0.097704 0.076632
vt 0.101029 0.277410
vt 0.200924 0.274800
vt 0.197616 0.074977
vt 0.789371 0.006341
vt 0.712456 0.006651
vt 0.943200 0.005475
vt 0.368820 0.469379
vt 0.783625 0.972514
vt 0.706706 0.972823
vt 0.704848 0.511332
vt 0.781763 0.511023
vt 0.609606 0.973214
vt 0.607297 0.511725
vt 0.306715 0.901166
vt 0.206790 0.901517
vt 0.206089 0.701668
vt 0.306013 0.701317
vt 0.106592 0.823916
vt 0.106164 0.702019
vt 0.359638 0.512569
vt 0.436553 0.512307
vt 0.438127 0.973799
vt 0.361212 0.974061
vt 0.513469 0.512045
vt 0.515042 0.973537
vt 0.935592 0.510157
vt 0.938190 0.971644
vt 0.782694 0.741768
vt 0.936891 0.740900
vt 0.360425 0.743315
vt 0.437340 0.743053
vt 0.514255 0.742791
vt 0.608451 0.742470
vt 0.705777 0.742078
vt 0.790302 0.237086
vt 0.944499 0.236218
vt 0.368033 0.238633
vt 0.444948 0.238371
vt 0.521864 0.238109
vt 0.616060 0.237788
vt 0.713385 0.237396
vt 0.936241 0.625528
vt 0.360031 0.627942
vt 0.782228 0.626395
vt 0.705312 0.626705
vt 0.607874 0.627097
vt 0.513862 0.627418
vt 0.436947 0.627680
vt 0.783159 0.857141
vt 0.937540 0.856272
vt 0.360818 0.858688
vt 0.437733 0.858426
vt 0.514649 0.858164
vt 0.609029 0.857842
vt 0.706242 0.857450
vt 0.943850 0.120847
vt 0.367640 0.123260
vt 0.789837 0.121714
vt 0.712921 0.122023
vt 0.615482 0.122415
vt 0.521470 0.122736
vt 0.444555 0.122998
vt 0.790768 0.352459
vt 0.945148 0.351590
vt 0.368426 0.354006
vt 0.445342 0.353744
vt 0.522257 0.353482
vt 0.616637 0.353160
vt 0.713850 0.352768
vt 0.791001 0.410146
vt 0.945473 0.409276
vt 0.368623 0.411693
vt 0.445538 0.411431
vt 0.522454 0.411168
vt 0.616926 0.410846
vt 0.714082 0.410455
vt 0.944824 0.293904
vt 0.368230 0.296320
vt 0.790535 0.294773
vt 0.713618 0.295082
vt 0.616348 0.295474
vt 0.522060 0.295795
vt 0.445145 0.296058
vt 0.790069 0.179400
vt 0.944174 0.178533
vt 0.367836 0.180947
vt 0.444752 0.180685
vt 0.521667 0.180422
vt 0.615771 0.180102
vt 0.713153 0.179709
vt 0.943525 0.063161
vt 0.367443 0.065574
vt 0.789604 0.064027
vt 0.712688 0.064337
vt 0.615194 0.064729
vt 0.521274 0.065049
vt 0.444358 0.065312
vt 0.783392 0.914827
vt 0.937865 0.913958
vt 0.361015 0.916375
vt 0.437930 0.916112
vt 0.514845 0.915850
vt 0.609317 0.915528
vt 0.706474 0.915137
vt 0.937216 0.798586
vt 0.360621 0.801002
vt 0.782927 0.799455
vt 0.706009 0.799764
vt 0.608740 0.800156
vt 0.514452 0.800477
vt 0.437537 0.800739
vt 0.782461 0.684082
vt 0.936566 0.683214
vt 0.360228 0.685629
vt 0.437143 0.685367
vt 0.514059 0.685104
vt 0.608163 0.684783
vt 0.705545 0.684391
vt 0.935917 0.567843
vt 0.359835 0.570256
vt 0.781996 0.568709
vt 0.705080 0.569019
vt 0.607585 0.569411
vt 0.513665 0.569731
vt 0.436750 0.569994
vn 0.000000 0.000000 1.000000
vn 0.000000 0.000000 1.000000
vn 0.000000 0.000000 1.000000
vn 0.000000 0.000000 1.000000
vn 0.000000 0.000000 1.000000
vn 0.000000 0.000000 1.000000
vn 0.009284 0.999957 0.000081
vn 0.334026 0.942439 0.015330
vn 0.332522 0.942596 0.030697
vn 0.008964 0.999960 0.000491
vn 0.610891 0.791206 0.028367
vn 0.609830 0.790525 0.056380
vn 0.000000 -1.000000 0.000000
vn 0.000000 -1.000000 0.000000
vn 0.000000 -1.000000 0.000000
vn 0.000000 -1.000000 0.000000
vn 0.000000 -1.000000 0.000000
vn 0.000000 -1.000000 0.000000
vn 0.999011 0.000000 0.044475
vn 0.996170 0.000000 0.087433
vn 0.996173 0.000000 0.087408
vn 0.999011 0.000000 0.044475
vn -0.995188 0.000000 -0.097988
vn -0.995185 0.000000 -0.098010
vn -0.998796 0.000000 -0.049068
vn -0.998796 0.000000 -0.049068
vn 0.003307 0.999990 0.003073
vn 0.227647 0.939555 0.255760
vn 0.202477 0.945113 0.256447
vn 0.002923 0.999991 0.002986
vn 0.406048 0.791510 0.456768
vn 0.378746 0.793046 0.477106
vn 1.000000 0.000000 0.000000
vn 1.000000 0.000000 0.000000
vn 1.000000 0.000000 0.000000
vn 1.000000 0.000000 0.000000
vn 1.000000 0.000000 0.000000
vn 1.000000 0.000000 0.000000
vn 0.000000 -1.000000 0.000000
vn 0.000000 -1.000000 0.000000
vn 0.000000 -1.000000 0.000000
vn 0.000000 -1.000000 0.000000
vn 0.000000 -1.000000 0.000000
vn 0.000000 -1.000000 0.000000
vn 0.663326 0.000000 0.748330
vn 0.619030 0.000000 0.785368
vn 0.619061 0.000000 0.785343
vn 0.663326 0.000000 0.748330
vn -0.622355 -0.000336 -0.782735
vn -0.622573 -0.000336 -0.782561
vn -0.665590 -0.000277 -0.746318
vn -0.665590 -0.000277 -0.746317
vn -0.079814 0.000000 -0.996810
vn -0.091784 0.000000 -0.995779
vn -0.091790 0.000000 -0.995778
vn -0.079814 0.000000 -0.996810
vn 0.000000 -1.000000 0.000000
vn 0.000000 -1.000000 0.000000
vn 0.000000 -1.000000 0.000000
vn 0.000000 -1.000000 0.000000
vn 0.000000 -1.000000 0.000000
vn 0.000000 -1.000000 0.000000
vn 0.105131 0.000000 0.994458
vn 0.105125 0.000000 0.994459
vn 0.096566 0.000000 0.995327
vn 0.096566 0.000000 0.995327
vn 0.029571 0.942069 0.334113
vn 0.054010 0.786192 0.615618
vn 0.039764 0.782364 0.621551
vn 0.021691 0.941589 0.336065
vn 0.000434 1.000000 0.000544
vn 0.000386 1.000000 0.000275
vn -0.743592 0.000128 -0.668634
vn -0.778397 0.000246 -0.627773
vn -0.778287 0.000246 -0.627909
vn -0.743592 0.000128 -0.668634
vn 0.000000 -1.000000 -0.000000
vn 0.000000 -1.000000 -0.000000
vn 0.000000 -1.000000 -0.000000
vn 0.000000 -1.000000 -0.000000
vn 0.000000 -1.000000 0.000000
vn 0.000000 -1.000000 0.000000
vn 0.781429 0.000000 0.623994
vn 0.781405 0.000000 0.624024
vn 0.744893 0.000000 0.667184
vn 0.744893 0.000000 0.667184
vn 0.257897 0.943726 0.207050
vn 0.481463 0.788294 0.383127
vn 0.457650 0.789055 0.409816
vn 0.235032 0.948995 0.210163
vn 0.004498 0.999985 0.003088
vn 0.004105 0.999987 0.003123
vn -0.231040 0.000000 -0.972944
vn -0.231016 0.000000 -0.972950
vn -0.328404 0.000000 -0.944537
vn -0.328430 0.000000 -0.944528
vn 0.001184 0.999997 0.002065
vn 0.108945 0.944670 0.309401
vn 0.079325 0.943634 0.321344
vn 0.000826 0.999998 0.001606
vn 0.200656 0.795317 0.572021
vn 0.144729 0.793454 0.591171
vn 0.332969 0.000000 0.942938
vn 0.332938 0.000000 0.942949
vn 0.241259 0.000000 0.970461
vn 0.241287 0.000000 0.970454
vn 0.000000 -1.000000 0.000000
vn 0.000000 -1.000000 0.000000
vn 0.000000 -1.000000 0.000000
vn 0.000000 -1.000000 0.000000
vn 0.000000 -1.000000 0.000000
vn 0.000000 -1.000000 0.000000
vn -0.428369 0.000000 -0.903604
vn -0.428394 0.000000 -0.903592
vn 0.000000 -1.000000 0.000000
vn 0.000000 -1.000000 0.000000
vn 0.000000 -1.000000 0.000000
vn 0.428700 0.000000 0.903447
vn 0.428667 0.000000 0.903462
vn 0.140278 0.945254 0.294647
vn 0.260358 0.795880 0.546616
vn 0.001659 0.999996 0.002457
vn -0.888462 0.000358 -0.458949
vn -0.888486 0.000358 -0.458903
vn -0.927520 0.000225 -0.373773
vn -0.927515 0.000225 -0.373785
vn 0.006912 0.999973 0.002325
vn 0.312566 0.942255 0.120245
vn 0.298872 0.942425 0.150033
vn 0.006141 0.999978 0.002696
vn 0.578969 0.784918 0.220678
vn 0.554701 0.785031 0.275742
vn 0.935902 0.000000 0.352260
vn 0.935892 0.000000 0.352288
vn 0.896375 0.000000 0.443297
vn 0.896389 0.000000 0.443267
vn 0.000000 -1.000000 0.000000
vn 0.000000 -1.000000 0.000000
vn 0.000000 -1.000000 0.000000
vn 0.000000 -1.000000 0.000000
vn 0.000000 -1.000000 0.000000
vn 0.000000 -1.000000 0.000000
vn -0.957867 0.000066 -0.287212
vn -0.957873 0.000066 -0.287192
vn 0.000000 -1.000000 0.000000
vn 0.000000 -1.000000 0.000000
vn 0.000000 -1.000000 0.000000
vn 0.964921 0.000000 0.262541
vn 0.964913 0.000000 0.262569
vn 0.322224 0.942329 0.090487
vn 0.595501 0.786033 0.165925
vn 0.007630 0.999969 0.001841
vn -0.980791 0.000000 -0.195062
vn -0.980787 0.000000 -0.195083
vn 0.000000 -1.000000 0.000000
vn 0.000000 -1.000000 0.000000
vn 0.000000 -1.000000 0.000000
vn 0.984677 0.000000 0.174387
vn 0.984682 0.000000 0.174360
vn 0.605210 0.788206 0.111593
vn 0.328837 0.942419 0.060929
vn 0.008310 0.999965 0.001235
vn -0.839035 0.000379 -0.544077
vn -0.839090 0.000379 -0.543992
vn 0.000000 -1.000000 0.000000
vn 0.000000 -1.000000 0.000000
vn 0.000000 -1.000000 0.000000
vn 0.845135 0.000000 0.534553
vn 0.845154 0.000000 0.534523
vn 0.522209 0.786255 0.330305
vn 0.280560 0.942964 0.179182
vn 0.005327 0.999982 0.002953
vn -0.528348 -0.000199 -0.849028
vn -0.528322 -0.000199 -0.849044
vn 0.000000 -1.000000 0.000000
vn 0.000000 -1.000000 0.000000
vn 0.000000 -1.000000 0.000000
vn 0.525384 0.000000 0.850865
vn 0.525417 0.000000 0.850845
vn 0.320513 0.794912 0.515156
vn 0.172119 0.945183 0.277496
vn 0.002241 0.999994 0.002767
vn -0.143866 0.000000 -0.989597
vn -0.143847 0.000000 -0.989600
vn 0.000000 -1.000000 0.000000
vn 0.000000 -1.000000 0.000000
vn 0.000000 -1.000000 0.000000
vn 0.155243 0.000000 0.987876
vn 0.155269 0.000000 0.987872
vn 0.093028 0.791244 0.604383
vn 0.051397 0.942697 0.329669
vn 0.000581 0.999999 0.001099
s 1
g Outside_Bend_LP
usemtl initialShadingGroup
f 1/13/1 2/16/2 5/15/3 4/14/4
f 2/16/2 3/11/5 6/12/6 5/15/3
s 2
f 4/4/7 5/3/8 60/89/9 55/83/10
f 5/3/8 6/6/11 59/88/12 60/89/9
s 3
f 56/85/13 57/86/14 2/2/15 1/20/16
f 57/86/14 58/87/17 3/5/18 2/2/15
s 4
f 3/5/19 58/87/20 59/88/21 6/6/22
s 5
f 55/83/23 56/84/24 1/1/25 4/4/26
s 6
f 7/21/27 8/22/28 84/117/29 79/111/30
f 8/22/28 9/25/31 83/116/32 84/117/29
s 7
f 13/27/33 14/28/34 17/29/35 16/30/36
f 14/28/34 15/31/37 18/32/38 17/29/35
s 8
f 80/113/39 81/114/40 11/35/41 10/36/42
f 81/114/40 82/115/43 12/38/44 11/35/41
s 9
f 12/38/45 82/115/46 83/116/47 9/25/48
s 10
f 79/111/49 80/112/50 10/40/51 7/21/52
f 16/39/53 97/132/54 98/134/55 13/24/56
s 8
f 16/33/57 17/34/58 102/138/59 97/133/60
f 17/34/58 18/37/61 101/137/62 102/138/59
s 9
f 100/136/63 101/137/64 18/37/65 15/26/66
s 6
f 99/135/67 100/136/68 15/26/69 14/23/70
f 98/134/71 99/135/67 14/23/70 13/24/72
s 5
f 10/19/73 73/104/74 74/106/75 7/17/76
s 3
f 10/9/77 11/8/78 78/110/79 73/105/80
f 11/8/78 12/10/81 77/109/82 78/110/79
s 4
f 76/108/83 77/109/84 12/10/85 9/7/86
s 2
f 75/107/87 76/108/88 9/7/89 8/18/90
f 74/106/91 75/107/87 8/18/90 7/17/92
s 10
f 91/125/93 92/126/94 20/42/95 19/41/96
s 6
f 19/41/97 24/47/98 96/131/99 91/125/100
f 24/47/98 23/46/101 95/130/102 96/131/99
s 9
f 23/46/103 22/45/104 94/129/105 95/130/106
s 8
f 93/128/107 94/129/108 22/45/109 21/44/110
f 92/127/111 93/128/107 21/44/110 20/43/112
s 10
f 19/41/96 20/42/95 85/118/113 86/120/114
s 8
f 20/43/112 21/44/110 90/124/115 85/119/116
f 21/44/110 22/45/109 89/123/117 90/124/115
s 9
f 88/122/118 89/123/119 22/45/104 23/46/103
s 6
f 87/121/120 88/122/121 23/46/101 24/47/98
f 86/120/122 87/121/120 24/47/98 19/41/97
s 5
f 67/97/123 68/98/124 26/49/125 25/48/126
s 2
f 25/48/127 30/54/128 72/103/129 67/97/130
f 30/54/128 29/53/131 71/102/132 72/103/129
s 4
f 29/53/133 28/52/134 70/101/135 71/102/136
s 3
f 69/100/137 70/101/138 28/52/139 27/51/140
f 68/99/141 69/100/137 27/51/140 26/50/142
s 5
f 25/48/126 26/49/125 61/90/143 62/92/144
s 3
f 26/50/142 27/51/140 66/96/145 61/91/146
f 27/51/140 28/52/139 65/95/147 66/96/145
s 4
f 64/94/148 65/95/149 28/52/134 29/53/133
s 2
f 63/93/150 64/94/151 29/53/131 30/54/128
f 62/92/152 63/93/150 30/54/128 25/48/127
s 5
f 49/76/153 50/77/154 56/84/24 55/83/23
s 3
f 50/78/155 51/79/156 57/86/14 56/85/13
f 51/79/156 52/80/157 58/87/17 57/86/14
s 4
f 59/88/21 58/87/20 52/80/158 53/81/159
s 2
f 60/89/9 59/88/12 53/81/160 54/82/161
f 55/83/10 60/89/9 54/82/161 49/76/162
s 5
f 62/92/144 61/90/143 50/77/154 49/76/153
s 2
f 49/76/162 54/82/161 63/93/150 62/92/152
f 54/82/161 53/81/160 64/94/151 63/93/150
s 4
f 53/81/159 52/80/158 65/95/149 64/94/148
s 3
f 66/96/145 65/95/147 52/80/157 51/79/156
f 61/91/146 66/96/145 51/79/156 50/78/155
s 5
f 44/71/163 43/69/164 68/98/124 67/97/123
s 3
f 43/70/165 48/75/166 69/100/137 68/99/141
f 48/75/166 47/74/167 70/101/138 69/100/137
s 4
f 71/102/136 70/101/135 47/74/168 46/73/169
s 2
f 72/103/129 71/102/132 46/73/170 45/72/171
f 67/97/130 72/103/129 45/72/171 44/71/172
s 5
f 74/106/75 73/104/74 43/69/164 44/71/163
s 2
f 44/71/172 45/72/171 75/107/87 74/106/91
f 45/72/171 46/73/170 76/108/88 75/107/87
s 4
f 46/73/169 47/74/168 77/109/84 76/108/83
s 3
f 78/110/79 77/109/82 47/74/167 48/75/166
f 73/105/80 78/110/79 48/75/166 43/70/165
s 10
f 37/62/173 38/63/174 80/112/50 79/111/49
s 8
f 38/64/175 39/65/176 81/114/40 80/113/39
f 39/65/176 40/66/177 82/115/43 81/114/40
s 9
f 83/116/47 82/115/46 40/66/178 41/67/179
s 6
f 84/117/29 83/116/32 41/67/180 42/68/181
f 79/111/30 84/117/29 42/68/181 37/62/182
s 10
f 86/120/114 85/118/113 38/63/174 37/62/173
s 6
f 37/62/182 42/68/181 87/121/120 86/120/122
f 42/68/181 41/67/180 88/122/121 87/121/120
s 9
f 41/67/179 40/66/178 89/123/119 88/122/118
s 8
f 90/124/115 89/123/117 40/66/177 39/65/176
f 85/119/116 90/124/115 39/65/176 38/64/175
s 10
f 32/57/183 31/55/184 92/126/94 91/125/93
s 8
f 31/56/185 36/61/186 93/128/107 92/127/111
f 36/61/186 35/60/187 94/129/108 93/128/107
s 9
f 95/130/106 94/129/105 35/60/188 34/59/189
s 6
f 96/131/99 95/130/102 34/59/190 33/58/191
f 91/125/100 96/131/99 33/58/191 32/57/192
s 10
f 98/134/55 97/132/54 31/55/184 32/57/183
s 6
f 32/57/192 33/58/191 99/135/67 98/134/71
f 33/58/191 34/59/190 100/136/68 99/135/67
s 9
f 34/59/189 35/60/188 101/137/64 100/136/63
s 8
f 102/138/59 101/137/62 35/60/187 36/61/186
f 97/133/60 102/138/59 36/61/186 31/56/185
