# This file uses centimeters as units for non-parametric coordinates.

mtllib Outside_Corner_LP.mtl
g default
v -1.000000 0.000000 0.000000
v -0.500000 0.000000 0.000000
v 0.000000 0.000000 0.000000
v -1.000000 1.004783 0.000000
v -0.500000 1.000000 0.000000
v 0.000000 0.614728 0.000000
v -1.006781 1.002391 -4.000000
v -0.500000 1.000000 -3.500000
v -0.000000 0.612337 -3.000000
v -1.006781 0.000000 -4.000000
v -0.499000 0.000000 -3.499810
v -0.000000 0.000000 -3.000000
v 3.000000 1.000000 -4.000000
v 3.000000 1.000000 -3.500000
v 3.000000 0.609945 -3.000000
v 3.000000 0.000000 -4.000000
v 3.000000 0.000000 -3.500000
v 3.000000 0.000000 -3.000000
vt 0.649859 0.844239
vt 0.649859 0.509162
vt 0.718252 0.509162
vt 0.718520 0.844239
vt 0.761551 0.844239
vt 0.761551 0.453316
vt 0.767687 0.900086
vt 0.767687 0.453316
vt 0.879913 0.453316
vt 0.879646 0.900086
vt 0.451368 0.565009
vt 0.395521 0.565009
vt 0.395521 0.453316
vt 0.451368 0.453316
vt 0.339675 0.521443
vt 0.339675 0.453316
vt 0.001992 0.448567
vt 0.001992 0.392721
vt 0.392915 0.392721
vt 0.448761 0.449325
vt 0.392915 0.001798
vt 0.448761 0.001798
vt 0.337069 0.336875
vt 0.337069 0.001798
vt 0.456293 0.449325
vt 0.512160 0.392610
vt 0.903062 0.392721
vt 0.903062 0.448568
vt 0.456293 0.001798
vt 0.512139 0.001798
vt 0.567985 0.336875
vt 0.903062 0.336875
vt 0.567985 0.001798
vt 0.457503 0.453316
vt 0.513349 0.453316
vt 0.513349 0.565009
vt 0.457503 0.565543
vt 0.569195 0.453316
vt 0.569195 0.521977
vt 0.575330 0.788393
vt 0.575330 0.453316
vt 0.643457 0.453316
vt 0.643724 0.788393
vt 0.998008 0.453316
vt 0.998008 0.900843
vt 0.886048 0.900843
vt 0.886316 0.453316
vn 0.000000 0.000000 1.000000
vn 0.000000 0.000000 1.000000
vn 0.000000 0.000000 1.000000
vn 0.000000 0.000000 1.000000
vn 0.000000 0.000000 1.000000
vn 0.000000 0.000000 1.000000
vn 0.007287 0.999973 -0.000325
vn 0.340093 0.940392 -0.000325
vn 0.193835 0.981034 -0.000330
vn 0.007287 0.999973 -0.000325
vn 0.611642 0.791135 -0.000291
vn 0.611642 0.791135 -0.000291
vn 0.000000 -1.000000 0.000000
vn 0.000000 -1.000000 0.000000
vn 0.000000 -1.000000 0.000000
vn 0.000000 -1.000000 0.000000
vn 0.000000 -1.000000 0.000000
vn 0.000000 -1.000000 0.000000
vn 1.000000 0.000000 -0.000000
vn 1.000000 0.000000 -0.000000
vn 1.000000 0.000000 -0.000000
vn 1.000000 0.000000 -0.000000
vn -0.999999 0.000000 0.001695
vn -0.999999 0.000000 0.001695
vn -0.999999 0.000000 0.001695
vn -0.999999 0.000000 0.001695
vn 0.000319 0.999998 0.002230
vn 0.000325 0.981544 0.191238
vn 0.000321 0.940281 0.340399
vn 0.000319 0.999998 0.002230
vn 0.000290 0.789445 0.613821
vn 0.000290 0.789445 0.613821
vn 1.000000 0.000000 0.000000
vn 1.000000 0.000000 0.000000
vn 1.000000 0.000000 0.000000
vn 1.000000 0.000000 0.000000
vn 1.000000 0.000000 0.000000
vn 1.000000 0.000000 0.000000
vn 0.000000 -1.000000 0.000000
vn 0.000000 -1.000000 0.000000
vn 0.000000 -1.000000 0.000000
vn 0.000000 -1.000000 0.000000
vn 0.000000 -1.000000 0.000000
vn 0.000000 -1.000000 0.000000
vn 0.000000 0.000000 1.000000
vn 0.000000 0.000000 1.000000
vn 0.000000 0.000000 1.000000
vn 0.000000 0.000000 1.000000
vn 0.000000 0.000000 -1.000000
vn 0.000000 0.000000 -1.000000
vn 0.000000 0.000000 -1.000000
vn 0.000000 0.000000 -1.000000
s 1
g Outside_Corner_LP
usemtl initialShadingGroup
f 1/34/1 2/35/2 5/36/3 4/37/4
f 2/35/2 3/38/5 6/39/6 5/36/3
s 2
f 4/17/7 5/18/8 8/19/9 7/20/10
f 5/5/8 6/4/11 9/3/12 8/6/9
s 3
f 10/25/13 11/26/14 2/27/15 1/28/16
f 11/26/14 12/31/17 3/32/18 2/27/15
s off
f 3/1/19 12/2/20 9/3/21 6/4/22
f 10/7/23 1/8/24 4/9/25 7/10/26
s 4
f 7/20/27 8/19/28 14/21/29 13/22/30
f 8/19/28 9/23/31 15/24/32 14/21/29
s 5
f 13/11/33 14/12/34 17/13/35 16/14/36
f 14/12/34 15/15/37 18/16/38 17/13/35
s 6
f 16/29/39 17/30/40 11/26/41 10/25/42
f 17/30/40 18/33/43 12/31/44 11/26/41
s off
f 12/40/45 18/41/46 15/42/47 9/43/48
f 16/44/49 10/45/50 7/46/51 13/47/52
