# This file uses centimeters as units for non-parametric coordinates.

mtllib Inside_Bend_LP.mtl
g default
v 1.000000 -0.000000 0.000000
v 0.500000 -0.000000 0.000000
v 0.000000 -0.000000 0.000000
v 1.000000 1.004783 0.000000
v 0.500000 1.000000 0.000000
v 0.000000 0.614728 0.000000
v 1.549232 1.002391 -1.517427
v 1.233574 1.000000 -1.907071
v 0.927379 0.612337 -2.305727
v 1.549232 -0.000000 -1.517427
v 1.233574 -0.000000 -1.907071
v 0.923717 -0.000000 -2.302240
v 3.000000 1.000000 -2.000000
v 3.000000 1.000000 -2.509812
v 2.994184 0.609945 -3.000000
v 3.000000 -0.000000 -2.000000
v 3.000000 -0.000000 -2.509812
v 2.994184 -0.000000 -3.000000
v 2.168108 1.001196 -1.892705
v 2.168108 -0.000000 -1.892705
v 2.003640 -0.000000 -2.380238
v 1.841813 -0.000000 -2.870288
v 1.841813 0.611141 -2.870288
v 2.003640 1.000000 -2.380238
v 1.151181 1.003587 -0.864352
v 1.151181 -0.000000 -0.864352
v 0.709374 -0.000000 -1.074868
v 0.252900 -0.000000 -1.271416
v 0.252900 0.613532 -1.271416
v 0.709374 1.000000 -1.074868
v 2.557762 -0.000000 -1.981045
v 2.557762 1.000598 -1.981045
v 2.467957 1.000000 -2.478809
v 2.379487 0.610543 -2.977845
v 2.379487 -0.000000 -2.977845
v 2.467957 -0.000000 -2.478809
v 1.831410 1.001794 -1.739818
v 1.831410 -0.000000 -1.739818
v 1.589330 -0.000000 -2.189558
v 1.356616 -0.000000 -2.648218
v 1.362947 0.611739 -2.654247
v 1.589330 1.000000 -2.189558
v 1.321902 -0.000000 -1.224061
v 1.321902 1.002989 -1.224061
v 0.939013 1.000000 -1.533128
v 0.551733 0.612935 -1.838013
v 0.550320 -0.000000 -1.836666
v 0.939013 -0.000000 -1.533128
v 1.041330 1.004185 -0.449935
v 1.041330 -0.000000 -0.449935
v 0.554231 -0.000000 -0.550617
v 0.063838 -0.000000 -0.648162
v 0.063838 0.614130 -0.648162
v 0.554231 1.000000 -0.550617
v 1.011183 1.004484 -0.227632
v 1.011183 -0.000000 -0.227632
v 0.513591 -0.000000 -0.276641
v 0.015998 -0.000000 -0.325649
v 0.015998 0.614429 -0.325649
v 0.513590 1.000000 -0.276641
v 1.088290 -0.000000 -0.662996
v 1.088290 1.003886 -0.662996
v 0.621530 1.000000 -0.819291
v 0.143060 0.613831 -0.964433
v 0.143060 -0.000000 -0.964433
v 0.621530 -0.000000 -0.819291
v 1.229257 1.003288 -1.051934
v 1.229257 -0.000000 -1.051934
v 0.815668 -0.000000 -1.313700
v 0.391094 -0.000000 -1.565005
v 0.391533 0.613234 -1.565423
v 0.815668 1.000000 -1.313700
v 1.428656 -0.000000 -1.379489
v 1.428656 1.002690 -1.379489
v 1.078516 1.000000 -1.731319
v 0.730751 0.612636 -2.085412
v 0.728253 -0.000000 -2.083033
v 1.078516 -0.000000 -1.731319
v 1.683494 1.002092 -1.637522
v 1.683494 -0.000000 -1.637522
v 1.403872 -0.000000 -2.059812
v 1.135947 -0.000000 -2.493243
v 1.140814 0.612038 -2.497877
v 1.403872 1.000000 -2.059812
v 1.992973 -0.000000 -1.824681
v 1.992973 1.001495 -1.824681
v 1.790007 1.000000 -2.296816
v 1.598786 0.611440 -2.780136
v 1.591469 -0.000000 -2.773167
v 1.790007 -0.000000 -2.296816
v 2.356555 1.000897 -1.944592
v 2.356555 -0.000000 -1.944592
v 2.227839 -0.000000 -2.438706
v 2.101502 -0.000000 -2.935086
v 2.101502 0.610842 -2.935086
v 2.227839 1.000000 -2.438706
v 2.770779 -0.000000 -2.002655
v 2.770779 1.000299 -2.002655
v 2.723773 1.000000 -2.502155
v 2.677146 0.610244 -3.002015
v 2.677146 -0.000000 -3.002015
v 2.723773 -0.000000 -2.502155
vt 0.945798 0.466962
vt 0.445735 0.469117
vt 0.714315 0.468141
vt 0.791233 0.467832
vt 0.522650 0.468855
vt 0.617214 0.468532
vt 0.614905 0.007043
vt 0.444162 0.007625
vt 0.367246 0.007888
vt 0.521077 0.007363
vt 0.297527 0.073323
vt 0.299561 0.196160
vt 0.097704 0.076632
vt 0.101029 0.277410
vt 0.200924 0.274800
vt 0.197616 0.074977
vt 0.789371 0.006341
vt 0.712456 0.006651
vt 0.943200 0.005475
vt 0.368820 0.469379
vt 0.783625 0.972514
vt 0.706706 0.972823
vt 0.704848 0.511332
vt 0.781763 0.511023
vt 0.609606 0.973214
vt 0.607297 0.511725
vt 0.306715 0.901166
vt 0.206790 0.901517
vt 0.206089 0.701668
vt 0.306013 0.701317
vt 0.106592 0.823916
vt 0.106164 0.702019
vt 0.359638 0.512569
vt 0.436553 0.512307
vt 0.438127 0.973799
vt 0.361212 0.974061
vt 0.513469 0.512045
vt 0.515042 0.973537
vt 0.935592 0.510157
vt 0.938190 0.971644
vt 0.782694 0.741768
vt 0.936891 0.740900
vt 0.360425 0.743315
vt 0.437340 0.743053
vt 0.514255 0.742791
vt 0.608451 0.742470
vt 0.705777 0.742078
vt 0.790302 0.237086
vt 0.944499 0.236218
vt 0.368033 0.238633
vt 0.444948 0.238371
vt 0.521864 0.238109
vt 0.616060 0.237788
vt 0.713385 0.237396
vt 0.936241 0.625528
vt 0.360031 0.627942
vt 0.782228 0.626395
vt 0.705312 0.626705
vt 0.607874 0.627097
vt 0.513862 0.627418
vt 0.436947 0.627680
vt 0.783159 0.857141
vt 0.937540 0.856272
vt 0.360818 0.858688
vt 0.437733 0.858426
vt 0.514649 0.858164
vt 0.609029 0.857842
vt 0.706242 0.857450
vt 0.943850 0.120847
vt 0.367640 0.123260
vt 0.789837 0.121714
vt 0.712921 0.122023
vt 0.615482 0.122415
vt 0.521470 0.122736
vt 0.444555 0.122998
vt 0.790768 0.352459
vt 0.945148 0.351590
vt 0.368426 0.354006
vt 0.445342 0.353744
vt 0.522257 0.353482
vt 0.616637 0.353160
vt 0.713850 0.352768
vt 0.791001 0.410146
vt 0.945473 0.409276
vt 0.368623 0.411693
vt 0.445538 0.411431
vt 0.522454 0.411168
vt 0.616926 0.410846
vt 0.714082 0.410455
vt 0.944824 0.293904
vt 0.368230 0.296320
vt 0.790535 0.294773
vt 0.713618 0.295082
vt 0.616348 0.295474
vt 0.522060 0.295795
vt 0.445145 0.296058
vt 0.790069 0.179400
vt 0.944174 0.178533
vt 0.367836 0.180947
vt 0.444752 0.180685
vt 0.521667 0.180422
vt 0.615771 0.180102
vt 0.713153 0.179709
vt 0.943525 0.063161
vt 0.367443 0.065574
vt 0.789604 0.064027
vt 0.712688 0.064337
vt 0.615194 0.064729
vt 0.521274 0.065049
vt 0.444358 0.065312
vt 0.783392 0.914827
vt 0.937865 0.913958
vt 0.361015 0.916375
vt 0.437930 0.916112
vt 0.514845 0.915850
vt 0.609317 0.915528
vt 0.706474 0.915137
vt 0.937216 0.798586
vt 0.360621 0.801002
vt 0.782927 0.799455
vt 0.706009 0.799764
vt 0.608740 0.800156
vt 0.514452 0.800477
vt 0.437537 0.800739
vt 0.782461 0.684082
vt 0.936566 0.683214
vt 0.360228 0.685629
vt 0.437143 0.685367
vt 0.514059 0.685104
vt 0.608163 0.684783
vt 0.705545 0.684391
vt 0.935917 0.567843
vt 0.359835 0.570256
vt 0.781996 0.568709
vt 0.705080 0.569019
vt 0.607585 0.569411
vt 0.513665 0.569731
vt 0.436750 0.569994
vn 0.000000 0.000000 1.000000
vn 0.000000 0.000000 1.000000
vn 0.000000 0.000000 1.000000
vn 0.000000 0.000000 1.000000
vn 0.000000 0.000000 1.000000
vn 0.000000 0.000000 1.000000
vn -0.009237 0.999957 -0.001047
vn -0.008885 0.999960 -0.001429
vn -0.397188 0.916882 -0.039607
vn -0.398308 0.917033 -0.020062
vn -0.607680 0.791892 -0.060268
vn -0.610219 0.791651 -0.030371
vn 0.000000 -1.000000 0.000000
vn 0.000000 -1.000000 0.000000
vn 0.000000 -1.000000 0.000000
vn 0.000000 -1.000000 0.000000
vn 0.000000 -1.000000 0.000000
vn 0.000000 -1.000000 0.000000
vn -0.998796 0.000000 -0.049068
vn -0.998796 0.000000 -0.049068
vn -0.995189 0.000000 -0.097977
vn -0.995186 0.000000 -0.098005
vn 0.995812 0.000000 0.091430
vn 0.998795 0.000000 0.049068
vn 0.998795 0.000000 0.049068
vn 0.995808 0.000000 0.091466
vn -0.002393 0.999990 -0.003767
vn -0.001995 0.999991 -0.003652
vn -0.251938 0.915229 -0.314456
vn -0.258461 0.921946 -0.288468
vn -0.376553 0.794109 -0.477074
vn -0.408597 0.791045 -0.455299
vn 1.000000 0.000000 0.000000
vn 1.000000 0.000000 0.000000
vn 0.999987 0.000000 -0.005177
vn 0.999993 0.000000 -0.003641
vn 0.999930 0.000000 -0.011864
vn 0.999930 0.000000 -0.011864
vn 0.000000 -1.000000 0.000000
vn 0.000000 -1.000000 0.000000
vn 0.000000 -1.000000 0.000000
vn 0.000000 -1.000000 0.000000
vn 0.000000 -1.000000 0.000000
vn 0.000000 -1.000000 0.000000
vn -0.669018 -0.000270 -0.743246
vn -0.669018 -0.000270 -0.743246
vn -0.624262 -0.001052 -0.781215
vn -0.624882 -0.001041 -0.780719
vn 0.619050 0.000000 0.785352
vn 0.666688 0.000000 0.745337
vn 0.666688 0.000000 0.745337
vn 0.618998 0.000000 0.785393
vn -0.011579 0.000000 0.999933
vn -0.011579 0.000000 0.999933
vn 0.042878 0.000000 0.999080
vn 0.042830 0.000000 0.999082
vn 0.000000 -1.000000 0.000000
vn 0.000000 -1.000000 0.000000
vn 0.000000 -1.000000 0.000000
vn 0.000000 -1.000000 0.000000
vn 0.000000 -1.000000 0.000000
vn 0.000000 -1.000000 0.000000
vn -0.036057 0.000000 -0.999350
vn 0.006357 0.000000 -0.999980
vn 0.006357 0.000000 -0.999980
vn -0.036030 0.000000 -0.999351
vn -0.017440 0.919496 -0.392712
vn -0.003230 0.919826 -0.392313
vn -0.005486 0.785709 -0.618572
vn -0.028723 0.788480 -0.614389
vn 0.000568 1.000000 -0.000627
vn 0.000588 1.000000 -0.000324
vn 0.752900 0.000000 0.658135
vn 0.752900 0.000000 0.658135
vn 0.790494 0.000000 0.612470
vn 0.790457 0.000000 0.612517
vn 0.000000 -1.000000 0.000000
vn 0.000000 -1.000000 0.000000
vn 0.000000 -1.000000 0.000000
vn 0.000000 -1.000000 0.000000
vn 0.000000 -1.000000 0.000000
vn 0.000000 -1.000000 0.000000
vn -0.779798 0.000688 -0.626031
vn -0.746224 0.000565 -0.665695
vn -0.746224 0.000565 -0.665695
vn -0.780005 0.000689 -0.625773
vn -0.324019 0.910470 -0.257016
vn -0.322695 0.901854 -0.287276
vn -0.460964 0.787077 -0.409904
vn -0.481619 0.786497 -0.386609
vn -0.003849 0.999985 -0.003851
vn -0.003321 0.999987 -0.003871
vn 0.221153 0.000000 0.975239
vn 0.313266 0.000000 0.949666
vn 0.313218 0.000000 0.949681
vn 0.221111 0.000000 0.975249
vn -0.000066 0.999997 -0.002431
vn 0.000277 0.999998 -0.001873
vn -0.077375 0.921484 -0.380632
vn -0.116067 0.921787 -0.369915
vn -0.122241 0.795839 -0.593040
vn -0.180882 0.798847 -0.573694
vn -0.298661 -0.001595 -0.954358
vn -0.196197 0.000000 -0.980565
vn -0.196166 0.000000 -0.980571
vn -0.298620 -0.001594 -0.954371
vn 0.000000 -1.000000 0.000000
vn 0.000000 -1.000000 0.000000
vn 0.000000 -1.000000 0.000000
vn 0.000000 -1.000000 0.000000
vn 0.000000 -1.000000 0.000000
vn 0.000000 -1.000000 0.000000
vn 0.413511 0.000000 0.910499
vn 0.413458 0.000000 0.910523
vn 0.000000 -1.000000 0.000000
vn 0.000000 -1.000000 0.000000
vn 0.000000 -1.000000 0.000000
vn -0.413207 -0.003673 -0.910630
vn -0.414312 -0.003682 -0.910128
vn -0.161445 0.921057 -0.354387
vn -0.247317 0.800032 -0.546611
vn -0.000566 0.999996 -0.002927
vn 0.903438 0.000000 0.428720
vn 0.940170 0.000000 0.340705
vn 0.940156 0.000000 0.340745
vn 0.903417 0.000000 0.428763
vn -0.006634 0.999973 -0.003156
vn -0.005759 0.999977 -0.003503
vn -0.367681 0.910459 -0.189406
vn -0.379577 0.912329 -0.153548
vn -0.548347 0.786531 -0.284053
vn -0.569468 0.788952 -0.230784
vn -0.924220 0.000089 -0.381861
vn -0.884748 0.000374 -0.466069
vn -0.884761 0.000374 -0.466045
vn -0.924209 0.000089 -0.381887
vn 0.000000 -1.000000 -0.000000
vn 0.000000 -1.000000 -0.000000
vn 0.000000 -1.000000 -0.000000
vn 0.000000 -1.000000 -0.000000
vn 0.000000 -1.000000 0.000000
vn 0.000000 -1.000000 0.000000
vn 0.966629 0.000000 0.256181
vn 0.966619 0.000000 0.256218
vn 0.000000 -1.000000 0.000000
vn 0.000000 -1.000000 -0.000000
vn 0.000000 -1.000000 -0.000000
vn -0.956952 0.000000 -0.290246
vn -0.956944 0.000000 -0.290273
vn -0.387231 0.914584 -0.116568
vn -0.586040 0.790887 -0.176221
vn -0.007433 0.999969 -0.002706
vn 0.984683 0.000000 0.174354
vn 0.984677 0.000000 0.174389
vn 0.000000 -1.000000 0.000000
vn 0.000000 -1.000000 0.000000
vn 0.000000 -1.000000 0.000000
vn -0.980793 0.000000 -0.195050
vn -0.980788 0.000000 -0.195079
vn -0.393666 0.915872 -0.078780
vn -0.599138 0.791663 -0.119599
vn -0.008171 0.999964 -0.002135
vn 0.854210 0.000000 0.519928
vn 0.854182 0.000000 0.519974
vn 0.000000 -1.000000 0.000000
vn 0.000000 -1.000000 0.000000
vn 0.000000 -1.000000 0.000000
vn -0.837799 0.000689 -0.545979
vn -0.837885 0.000689 -0.545846
vn -0.349441 0.909842 -0.223783
vn -0.519855 0.785415 -0.335967
vn -0.004820 0.999981 -0.003740
vn 0.517549 0.000000 0.855654
vn 0.517494 0.000000 0.855687
vn 0.000000 -1.000000 0.000000
vn 0.000000 -1.000000 0.000000
vn 0.000000 -1.000000 0.000000
vn -0.523702 -0.003004 -0.851897
vn -0.524597 -0.002985 -0.851345
vn -0.207506 0.918610 -0.336299
vn -0.313607 0.798159 -0.514386
vn -0.001211 0.999994 -0.003345
vn 0.138855 0.000000 0.990313
vn 0.138820 0.000000 0.990318
vn 0.000000 -1.000000 0.000000
vn 0.000000 -1.000000 0.000000
vn 0.000000 -1.000000 0.000000
vn -0.115522 0.000000 -0.993305
vn -0.115499 0.000000 -0.993308
vn -0.046374 0.920321 -0.388405
vn -0.073859 0.792587 -0.605269
vn 0.000475 0.999999 -0.001271
s 1
g Inside_Bend_LP
usemtl initialShadingGroup
f 1/13/1 4/14/2 5/15/3 2/16/4
f 2/16/4 5/15/3 6/12/5 3/11/6
s 2
f 4/4/7 55/83/8 60/89/9 5/3/10
f 5/3/10 60/89/9 59/88/11 6/6/12
s 3
f 56/85/13 1/20/14 2/2/15 57/86/16
f 57/86/16 2/2/15 3/5/17 58/87/18
s 4
f 3/5/19 6/6/20 59/88/21 58/87/22
s 5
f 55/83/23 4/4/24 1/1/25 56/84/26
s 6
f 7/21/27 79/111/28 84/117/29 8/22/30
f 8/22/30 84/117/29 83/116/31 9/25/32
s 7
f 13/27/33 16/30/34 17/29/35 14/28/36
f 14/28/36 17/29/35 18/32/37 15/31/38
s 8
f 80/113/39 10/36/40 11/35/41 81/114/42
f 81/114/42 11/35/41 12/38/43 82/115/44
s 9
f 12/38/45 9/25/46 83/116/47 82/115/48
s 10
f 79/111/49 7/21/50 10/40/51 80/112/52
f 16/39/53 13/24/54 98/134/55 97/132/56
s 8
f 16/33/57 97/133/58 102/138/59 17/34/60
f 17/34/60 102/138/59 101/137/61 18/37/62
s 9
f 100/136/63 15/26/64 18/37/65 101/137/66
s 6
f 99/135/67 14/23/68 15/26/69 100/136/70
f 98/134/71 13/24/72 14/23/68 99/135/67
s 5
f 10/19/73 7/17/74 74/106/75 73/104/76
s 3
f 10/9/77 73/105/78 78/110/79 11/8/80
f 11/8/80 78/110/79 77/109/81 12/10/82
s 4
f 76/108/83 9/7/84 12/10/85 77/109/86
s 2
f 75/107/87 8/18/88 9/7/89 76/108/90
f 74/106/91 7/17/92 8/18/88 75/107/87
s 10
f 91/125/93 19/41/94 20/42/95 92/126/96
s 6
f 19/41/97 91/125/98 96/131/99 24/47/100
f 24/47/100 96/131/99 95/130/101 23/46/102
s 9
f 23/46/103 95/130/104 94/129/105 22/45/106
s 8
f 93/128/107 21/44/108 22/45/109 94/129/110
f 92/127/111 20/43/112 21/44/108 93/128/107
s 10
f 19/41/94 86/120/113 85/118/114 20/42/95
s 8
f 20/43/112 85/119/115 90/124/116 21/44/108
f 21/44/108 90/124/116 89/123/117 22/45/109
s 9
f 88/122/118 23/46/103 22/45/106 89/123/119
s 6
f 87/121/120 24/47/100 23/46/102 88/122/121
f 86/120/122 19/41/97 24/47/100 87/121/120
s 5
f 67/97/123 25/48/124 26/49/125 68/98/126
s 2
f 25/48/127 67/97/128 72/103/129 30/54/130
f 30/54/130 72/103/129 71/102/131 29/53/132
s 4
f 29/53/133 71/102/134 70/101/135 28/52/136
s 3
f 69/100/137 27/51/138 28/52/139 70/101/140
f 68/99/141 26/50/142 27/51/138 69/100/137
s 5
f 25/48/124 62/92/143 61/90/144 26/49/125
s 3
f 26/50/142 61/91/145 66/96/146 27/51/138
f 27/51/138 66/96/146 65/95/147 28/52/139
s 4
f 64/94/148 29/53/133 28/52/136 65/95/149
s 2
f 63/93/150 30/54/130 29/53/132 64/94/151
f 62/92/152 25/48/127 30/54/130 63/93/150
s 5
f 49/76/153 55/83/23 56/84/26 50/77/154
s 3
f 50/78/155 56/85/13 57/86/16 51/79/156
f 51/79/156 57/86/16 58/87/18 52/80/157
s 4
f 59/88/21 53/81/158 52/80/159 58/87/22
s 2
f 60/89/9 54/82/160 53/81/161 59/88/11
f 55/83/8 49/76/162 54/82/160 60/89/9
s 5
f 62/92/143 49/76/153 50/77/154 61/90/144
s 2
f 49/76/162 62/92/152 63/93/150 54/82/160
f 54/82/160 63/93/150 64/94/151 53/81/161
s 4
f 53/81/158 64/94/148 65/95/149 52/80/159
s 3
f 66/96/146 51/79/156 52/80/157 65/95/147
f 61/91/145 50/78/155 51/79/156 66/96/146
s 5
f 44/71/163 67/97/123 68/98/126 43/69/164
s 3
f 43/70/165 68/99/141 69/100/137 48/75/166
f 48/75/166 69/100/137 70/101/140 47/74/167
s 4
f 71/102/134 46/73/168 47/74/169 70/101/135
s 2
f 72/103/129 45/72/170 46/73/171 71/102/131
f 67/97/128 44/71/172 45/72/170 72/103/129
s 5
f 74/106/75 44/71/163 43/69/164 73/104/76
s 2
f 44/71/172 74/106/91 75/107/87 45/72/170
f 45/72/170 75/107/87 76/108/90 46/73/171
s 4
f 46/73/168 76/108/83 77/109/86 47/74/169
s 3
f 78/110/79 48/75/166 47/74/167 77/109/81
f 73/105/78 43/70/165 48/75/166 78/110/79
s 10
f 37/62/173 79/111/49 80/112/52 38/63/174
s 8
f 38/64/175 80/113/39 81/114/42 39/65/176
f 39/65/176 81/114/42 82/115/44 40/66/177
s 9
f 83/116/47 41/67/178 40/66/179 82/115/48
s 6
f 84/117/29 42/68/180 41/67/181 83/116/31
f 79/111/28 37/62/182 42/68/180 84/117/29
s 10
f 86/120/113 37/62/173 38/63/174 85/118/114
s 6
f 37/62/182 86/120/122 87/121/120 42/68/180
f 42/68/180 87/121/120 88/122/121 41/67/181
s 9
f 41/67/178 88/122/118 89/123/119 40/66/179
s 8
f 90/124/116 39/65/176 40/66/177 89/123/117
f 85/119/115 38/64/175 39/65/176 90/124/116
s 10
f 32/57/183 91/125/93 92/126/96 31/55/184
s 8
f 31/56/185 92/127/111 93/128/107 36/61/186
f 36/61/186 93/128/107 94/129/110 35/60/187
s 9
f 95/130/104 34/59/188 35/60/189 94/129/105
s 6
f 96/131/99 33/58/190 34/59/191 95/130/101
f 91/125/98 32/57/192 33/58/190 96/131/99
s 10
f 98/134/55 32/57/183 31/55/184 97/132/56
s 6
f 32/57/192 98/134/71 99/135/67 33/58/190
f 33/58/190 99/135/67 100/136/70 34/59/191
s 9
f 34/59/188 100/136/63 101/137/66 35/60/189
s 8
f 102/138/59 36/61/186 35/60/187 101/137/61
f 97/133/58 31/56/185 36/61/186 102/138/59
